# This file uses centimeters as units for non-parametric coordinates.

g default
v 28.531713 -15.000000 -9.270515
v 24.270527 -15.000000 -17.633568
v 17.633568 -15.000000 -24.270525
v 9.270514 -15.000000 -28.531710
v 0.000000 -15.000000 -30.000015
v -9.270514 -15.000000 -28.531708
v -17.633564 -15.000000 -24.270519
v -24.270517 -15.000000 -17.633562
v -28.531704 -15.000000 -9.270512
v -30.000008 -15.000000 0.000000
v -28.531704 -15.000000 9.270512
v -24.270515 -15.000000 17.633560
v -17.633560 -15.000000 24.270514
v -9.270512 -15.000000 28.531700
v -0.000001 -15.000000 30.000004
v 9.270509 -15.000000 28.531698
v 17.633556 -15.000000 24.270512
v 24.270510 -15.000000 17.633558
v 28.531696 -15.000000 9.270510
v 30.000000 -15.000000 0.000000
v 28.531713 15.000000 -9.270515
v 24.270527 15.000000 -17.633568
v 17.633568 15.000000 -24.270525
v 9.270514 15.000000 -28.531710
v 0.000000 15.000000 -30.000015
v -9.270514 15.000000 -28.531708
v -17.633564 15.000000 -24.270519
v -24.270517 15.000000 -17.633562
v -28.531704 15.000000 -9.270512
v -30.000008 15.000000 0.000000
v -28.531704 15.000000 9.270512
v -24.270515 15.000000 17.633560
v -17.633560 15.000000 24.270514
v -9.270512 15.000000 28.531700
v -0.000001 15.000000 30.000004
v 9.270509 15.000000 28.531698
v 17.633556 15.000000 24.270512
v 24.270510 15.000000 17.633558
v 28.531696 15.000000 9.270510
v 30.000000 15.000000 0.000000
vt 0.500000 0.497976
vt 0.549902 0.497976
vt 0.549902 0.657475
vt 0.500000 0.657475
vt 0.599805 0.497976
vt 0.599805 0.657475
vt 0.649707 0.497976
vt 0.649707 0.657475
vt 0.699609 0.497976
vt 0.699609 0.657475
vt 0.749512 0.497976
vt 0.749512 0.657475
vt 0.799414 0.497976
vt 0.799414 0.657475
vt 0.849316 0.497976
vt 0.849316 0.657475
vt 0.899219 0.497976
vt 0.899219 0.657475
vt 0.949121 0.497976
vt 0.949121 0.657475
vt 0.999023 0.497976
vt 0.000977 0.657475
vt 0.050879 0.497976
vt 0.050879 0.657475
vt 0.100781 0.497976
vt 0.100781 0.657475
vt 0.150684 0.497976
vt 0.150684 0.657475
vt 0.200586 0.497976
vt 0.200586 0.657475
vt 0.250488 0.497976
vt 0.250488 0.657475
vt 0.300391 0.497976
vt 0.300391 0.657475
vt 0.350293 0.497976
vt 0.350293 0.657475
vt 0.400195 0.497976
vt 0.400195 0.657475
vt 0.450098 0.497976
vt 0.450098 0.657475
vt 0.000977 0.497976
vt 0.999023 0.657475
vn 0.951057 0.000000 -0.309016
vn 0.809017 0.000000 -0.587785
vn 0.809017 0.000000 -0.587785
vn 0.951057 0.000000 -0.309016
vn 0.587785 0.000000 -0.809017
vn 0.587785 0.000000 -0.809017
vn 0.309017 0.000000 -0.951057
vn 0.309017 0.000000 -0.951057
vn -0.000000 0.000000 -1.000000
vn -0.000000 0.000000 -1.000000
vn -0.309017 0.000000 -0.951057
vn -0.309017 0.000000 -0.951057
vn -0.587786 0.000000 -0.809017
vn -0.587786 0.000000 -0.809017
vn -0.809017 0.000000 -0.587785
vn -0.809017 0.000000 -0.587785
vn -0.951057 0.000000 -0.309017
vn -0.951057 0.000000 -0.309017
vn -1.000000 0.000000 0.000000
vn -1.000000 0.000000 0.000000
vn -0.951057 0.000000 0.309017
vn -0.951057 0.000000 0.309017
vn -0.809017 0.000000 0.587785
vn -0.809017 0.000000 0.587785
vn -0.587785 0.000000 0.809017
vn -0.587785 0.000000 0.809017
vn -0.309017 0.000000 0.951057
vn -0.309017 0.000000 0.951057
vn 0.000000 0.000000 1.000000
vn 0.000000 0.000000 1.000000
vn 0.309017 0.000000 0.951056
vn 0.309017 0.000000 0.951056
vn 0.587785 0.000000 0.809017
vn 0.587785 0.000000 0.809017
vn 0.809017 0.000000 0.587785
vn 0.809017 0.000000 0.587785
vn 0.951057 0.000000 0.309017
vn 0.951057 0.000000 0.309017
vn 1.000000 0.000000 0.000001
vn 1.000000 0.000000 0.000001
s 1
g pCylinder4
f 1/1/1 2/2/2 22/3/3 21/4/4
f 2/2/2 3/5/5 23/6/6 22/3/3
f 3/5/5 4/7/7 24/8/8 23/6/6
f 4/7/7 5/9/9 25/10/10 24/8/8
f 5/9/9 6/11/11 26/12/12 25/10/10
f 6/11/11 7/13/13 27/14/14 26/12/12
f 7/13/13 8/15/15 28/16/16 27/14/14
f 8/15/15 9/17/17 29/18/18 28/16/16
f 9/17/17 10/19/19 30/20/20 29/18/18
f 10/19/19 11/21/21 31/42/22 30/20/20
f 11/41/21 12/23/23 32/24/24 31/22/22
f 12/23/23 13/25/25 33/26/26 32/24/24
f 13/25/25 14/27/27 34/28/28 33/26/26
f 14/27/27 15/29/29 35/30/30 34/28/28
f 15/29/29 16/31/31 36/32/32 35/30/30
f 16/31/31 17/33/33 37/34/34 36/32/32
f 17/33/33 18/35/35 38/36/36 37/34/34
f 18/35/35 19/37/37 39/38/38 38/36/36
f 19/37/37 20/39/39 40/40/40 39/38/38
f 20/39/39 1/1/1 21/4/4 40/40/40
